<?xml version="1.0" standalone="no"?><!DOCTYPE svg PUBLIC "-//W3C//DTD SVG 1.1//EN" "http://www.w3.org/Graphics/SVG/1.1/DTD/svg11.dtd"><svg t="1499153917566" class="icon" style="" viewBox="0 0 1024 1024" version="1.1" xmlns="http://www.w3.org/2000/svg" p-id="1866" xmlns:xlink="http://www.w3.org/1999/xlink" width="48" height="48"><defs><style type="text/css"></style></defs><path d="M417.696 224c0-52.928 43.072-96 96-96s96 43.072 96 96-43.072 96-96 96-96-43.072-96-96z m0 288c0-52.928 43.072-96 96-96s96 43.072 96 96-43.072 96-96 96-96-43.072-96-96z m0 288c0-52.928 43.072-96 96-96s96 43.072 96 96-43.072 96-96 96-96-43.072-96-96z" p-id="1867"></path></svg>