<svg xmlns="http://www.w3.org/2000/svg" viewBox="0 0 23.4 43.15"><defs><style>.a{fill:#0b2b60;}</style></defs><path d="M13.06 41.05a5.58 5.58 0 0 1-.16-2.35 6.1 6.1 0 0 1 .25-1.27 4.72 4.72 0 0 1 2.93-2.9c.03 0 .07 0 .1-.02a11.7 11.7 0 0 0 7.22-10.8c0-6.9-3.7-12.02-6.68-16.13-1.8-2.47-3.34-4.6-3.86-6.66 0 0 0-.03-.02-.05a1.07 1.07 0 0 0-.04-.12c0-.03-.03-.07-.05-.1l-.06-.1a1.08 1.08 0 0 0-.08-.1 1.1 1.1 0 0 0-.07-.08l-.1-.08a1.03 1.03 0 0 0-.08-.07 1.16 1.16 0 0 0-.1-.06c-.03 0-.07-.03-.1-.04a1.22 1.22 0 0 0-.12-.05c-.02 0-.04 0-.06-.02h-.06a1.18 1.18 0 0 0-.12-.02h-.22a1.2 1.2 0 0 0-.14.03h-.05l-.04.02a1.2 1.2 0 0 0-.13.05c-.03 0-.06.03-.1.04a1.16 1.16 0 0 0-.1.07l-.1.07a1.2 1.2 0 0 0-.08.08l-.07.08a1.14 1.14 0 0 0-.07.1c0 .03-.03.06-.05.1l-.05.1a1.15 1.15 0 0 0-.04.12l-.02.05c-.52 2.06-2.07 4.2-3.86 6.67C3.7 11.67 0 16.8 0 23.7a11.7 11.7 0 0 0 7.22 10.8l.1.04a4.72 4.72 0 0 1 2.93 2.9 14.15 14.15 0 0 1 .3 3.46c-.12 1.26-.9 1.45-.38 1.98a4.3 4.3 0 0 0 2.13.27c.3 0 1.43 0 1.08-.98" class="a"/></svg>